<?xml version="1.0" encoding="UTF-8" standalone="no"?>
<!-- Created with Inkscape (http://www.inkscape.org/) -->
<svg id="svg2" xmlns:rdf="http://www.w3.org/1999/02/22-rdf-syntax-ns#" xmlns="http://www.w3.org/2000/svg" height="47.171mm" width="52.066mm" version="1.1" xmlns:cc="http://creativecommons.org/ns#" xmlns:dc="http://purl.org/dc/elements/1.1/" viewBox="0 0 184.48709 167.14286">
 <defs id="defs4">
  <clipPath id="clipPath4261" clipPathUnits="userSpaceOnUse">
   <path id="path4263" d="m329.81 450.82h47.477s2.9896 17.077 12.374 18.12c8.1047 0.90058 12.463-10.83 13.89-18.12 2.9558-15.102-0.85316-34.387 3.283-48.487 1.357-4.6261 8.4195-7.0785 13.132-6.0609 4.0251 0.86915 8.4574 5.3365 8.0812 9.3439-1.7205 18.326-8.3976 42.862-6.8185 58.841 0.40369 4.0851 6.7857 6.3163 10.859 5.8084 3.8434-0.47926 6.822-4.3807 8.5863-7.8287 5.7123-11.164 1.5228-25.861 4.2932-37.376 0.83009-3.4501 6.547-5.3402 9.849-4.0406 3.277 1.2898 4.7731 6.1628 4.4194 9.5964-0.77648 7.5373 0.37881 22.728 0.37881 22.728s17.476-2.9842 26.264-3.5355c2.0459-0.12835 2.5841 4.5718 2.0203 5.8084-1.1237 2.4645-9.1407 3.269-11.68 4.5452-7.6899 3.8642-5.3964 10.666-11.553 10.607-32.58-0.31283-126.52 0-126.52 0-3.1774-1.2014-6.2225-3.9156-7.7024-7.0711-1.8252-3.8916-0.63134-12.879-0.63134-12.879z" stroke="#000" stroke-width="1.3" fill="none"/>
  </clipPath>
  <clipPath id="clipPath4269" clipPathUnits="userSpaceOnUse">
   <path id="path4271" d="m329.81 450.82h47.477s2.9896 17.077 12.374 18.12c8.1047 0.90058 12.463-10.83 13.89-18.12 2.9558-15.102-0.85316-34.387 3.283-48.487 1.357-4.6261 8.4195-7.0785 13.132-6.0609 4.0251 0.86915 8.4574 5.3365 8.0812 9.3439-1.7205 18.326-8.3976 42.862-6.8185 58.841 0.40369 4.0851 6.7857 6.3163 10.859 5.8084 3.8434-0.47926 6.822-4.3807 8.5863-7.8287 5.7123-11.164 1.5228-25.861 4.2932-37.376 0.83009-3.4501 6.547-5.3402 9.849-4.0406 3.277 1.2898 4.7731 6.1628 4.4194 9.5964-0.77648 7.5373 0.37881 22.728 0.37881 22.728s17.476-2.9842 26.264-3.5355c2.0459-0.12835 2.5841 4.5718 2.0203 5.8084-1.1237 2.4645-9.1407 3.269-11.68 4.5452-7.6899 3.8642-5.3964 10.666-11.553 10.607-32.58-0.31283-126.52 0-126.52 0-3.1774-1.2014-6.2225-3.9156-7.7024-7.0711-1.8252-3.8916-0.63134-12.879-0.63134-12.879z" stroke="#000" stroke-width="1.3" fill="none"/>
  </clipPath>
  <clipPath id="clipPath4302" clipPathUnits="userSpaceOnUse">
   <path id="path4304" d="m329.81 450.82h47.477s2.9896 17.077 12.374 18.12c8.1047 0.90058 12.463-10.83 13.89-18.12 2.9558-15.102-0.85316-34.387 3.283-48.487 1.357-4.6261 8.4195-7.0785 13.132-6.0609 4.0251 0.86915 8.4574 5.3365 8.0812 9.3439-1.7205 18.326-8.3976 42.862-6.8185 58.841 0.40369 4.0851 6.7857 6.3163 10.859 5.8084 3.8434-0.47926 6.822-4.3807 8.5863-7.8287 5.7123-11.164 1.5228-25.861 4.2932-37.376 0.83009-3.4501 6.547-5.3402 9.849-4.0406 3.277 1.2898 4.7731 6.1628 4.4194 9.5964-0.77648 7.5373 0.37881 22.728 0.37881 22.728s17.476-2.9842 26.264-3.5355c2.0459-0.12835 2.5841 4.5718 2.0203 5.8084-1.1237 2.4645-9.1407 3.269-11.68 4.5452-7.6899 3.8642-5.3964 10.666-11.553 10.607-32.58-0.31283-126.52 0-126.52 0-3.1774-1.2014-6.2225-3.9156-7.7024-7.0711-1.8252-3.8916-0.63134-12.879-0.63134-12.879z" stroke="#000" stroke-width="1.3" fill="none"/>
  </clipPath>
  <clipPath id="clipPath4214" clipPathUnits="userSpaceOnUse">
   <rect id="rect4216" opacity="0.99" rx="2.4231" ry="5.3115" height="59.852" width="79.297" y="463.7" x="9.0914" fill="#ccc"/>
  </clipPath>
  <clipPath id="clipPath4351" clipPathUnits="userSpaceOnUse">
   <rect id="rect4353" opacity="0.99" rx="6" ry="6" height="87.143" width="148.57" stroke="#000" y="244.13" x="111.22" stroke-width="1.3" fill="#f9f9f9"/>
  </clipPath>
  <clipPath id="clipPath4227" clipPathUnits="userSpaceOnUse">
   <rect id="rect4229" opacity="0.99" rx="6" ry="6" height="18.929" width="176.96" y="256.83" x="487.68" fill="#e6e6e6"/>
  </clipPath>
 </defs>
 <metadata id="metadata7">
  <rdf:RDF>
   <cc:Work rdf:about="">
    <dc:format>image/svg+xml</dc:format>
    <dc:type rdf:resource="http://purl.org/dc/dcmitype/StillImage"/>
    <dc:title/>
   </cc:Work>
  </rdf:RDF>
 </metadata>
 <g id="layer1" transform="translate(-278.02 -402.66)">
  <text id="text4198" style="word-spacing:0px;letter-spacing:0px" xml:space="preserve" font-size="40px" y="456.87729" x="454.56863" font-family="sans-serif" line-height="125%" fill="#000000"><tspan id="tspan4200" x="454.56863" y="456.87729"/></text>
  <g id="g4369" transform="translate(53.922 -112.75)">
   <circle id="path4565" opacity="0.99" fill-opacity="0.215" cy="594.51" cx="585.8" r="83.571" fill="#d5e5ff"/>
   <g id="g4346" transform="translate(18.382 50.245)">
    <g id="g4314" transform="translate(169.91 113.58)" stroke="#000" fill="none">
     <path id="path4273" d="m351.79 468.22 0.50496-71.552 65.988-0.50737-7.9189 73.353z" stroke-width="1.3158"/>
     <path id="path4275" d="m452.7 420.47h-27.44l-12.413 49.323h42.14z" stroke-width=".92936px"/>
    </g>
    <path id="path4249" d="m322.74 454.6 2.0203-10.859 61.114 2.7779 3.7881 9.849 11.869-68.438 41.164 5.5558-12.122 50.003 19.951-34.598 18.94 14.9-2.7779 17.173 32.325 4.0406-1.7678 31.82-153.29 13.385-29.547-24.749z" clip-path="url(#clipPath4261)" fill-rule="evenodd" transform="translate(169.91 113.58)" fill="#f2f2f2"/>
    <g id="g4306" fill-rule="evenodd" fill="#e6e6e6" transform="translate(169.91 113.58)">
     <path id="path4265" d="m432.86 419.15s-14.127-16.313-17.143-10.357c-8.5565 16.898-8.5714 67.857-8.5714 67.857h-85l-2.8572-16.071 76.429-0.35714 5.3571-70.714 32.857-0.71428z" clip-path="url(#clipPath4269)"/>
     <path id="path4296" d="m464.42 435.92s-11.01-9.2664-12.879-5.0508c-6.3376 14.293-7.5762 53.033-7.5762 53.033l-18.183-5.5558 16.415-71.468 22.728 12.879z" clip-path="url(#clipPath4302)"/>
    </g>
    <g stroke="#000" fill="none">
     <path id="path4158" d="m499.72 564.4h47.477s2.9896 17.077 12.374 18.12c8.1047 0.90058 12.463-10.83 13.89-18.12 2.9558-15.102-0.8531-34.387 3.283-48.487 1.3571-4.6261 8.4196-7.0785 13.132-6.0609 4.0251 0.86915 8.4575 5.3365 8.0812 9.3439-1.7205 18.326-8.3976 42.862-6.8185 58.841 0.4037 4.0851 6.7857 6.3163 10.859 5.8084 3.8434-0.47926 6.8221-4.3807 8.5863-7.8287 5.7123-11.164 1.5229-25.861 4.2932-37.376 0.8301-3.4501 6.547-5.3402 9.849-4.0406 3.277 1.2898 4.7731 6.1628 4.4194 9.5964-0.7765 7.5373 0.3788 22.728 0.3788 22.728s17.476-2.9842 26.264-3.5355c2.0458-0.12835 2.5841 4.5718 2.0203 5.8084-1.1237 2.4645-9.1408 3.269-11.68 4.5452-7.6899 3.8642-5.3964 10.666-11.553 10.607-32.58-0.31283-126.52 0-126.52 0-3.1774-1.2014-6.2225-3.9156-7.7024-7.0711-1.8252-3.8916-0.6314-12.879-0.6314-12.879z" stroke-width="1.3"/>
     <path id="path4310" d="m493.43 584.35h167.9" stroke-width="1.2255"/>
     <path id="path4312" d="m473.5 584.35h14.867" stroke-width="1.3"/>
    </g>
    <g stroke="#000">
     <path id="rect4342" opacity="0.99" d="m614.16 561.27c4.1166-4.1166 10.469-4.3912 17.141-4.2052 6.0861 0.16966 12.513 0.43758 16.255 4.2052 4.7135 4.7451 4.1872 16.157-0.13412 20.064-3.9633 3.5835-10.138 2.546-16.564 2.521-6.3367-0.0246-12.791 1.4153-16.699-2.1186-4.3213-3.9072-4.8241-15.643 0-20.467z" stroke-width="1.381" fill="#d5e5ff"/>
     <path id="path4167" opacity="0.99" d="m628.41 553.77c0.79207-0.55291 2.0144-0.58978 3.2982-0.56481 1.171 0.0228 2.4076 0.0587 3.1277 0.56481 0.90693 0.63733 0.80567 2.1701-0.0257 2.6949-0.76257 0.48131-1.9506 0.34196-3.187 0.3386-1.2192-0.003-2.461 0.19009-3.2131-0.28455-0.56336-1.0582-0.80323-2.1341-0.0001-2.7489z" stroke-width="1.3" fill="#faa"/>
     <path id="path4169" d="m631.1 552.91c-2.1632-0.1903 1.8482-4.2215 3.6934-5.3664 1.5085-0.93605 4.0222-2.0187 5.2717-0.75762 0.73428 0.74102 0.0807 2.2098-0.4735 3.0936-1.0652 1.6988-2.9588 3.587-4.9561 3.4093-0.97146-0.0865-2.5737-0.2942-3.5355-0.37881z" stroke-width="1px" fill="none"/>
    </g>
    <g>
     <path id="path4171" d="m631.1 552.91c-2.1632-0.1903 1.8482-4.2215 3.6934-5.3664 1.5085-0.93605 4.0222-2.0187 5.2717-0.75762 0.73428 0.74102 0.0807 2.2098-0.4735 3.0936-1.0652 1.6988-2.9588 3.587-4.9561 3.4093-0.97146-0.0865-2.5737-0.2942-3.5355-0.37881z" fill-rule="evenodd" stroke="#000" stroke-width="1px" fill="#d5e5ff"/>
     <path id="path4173" d="m635.78 555.78c-0.87026-1.897 3.1401-4.5588 5.1455-5.8399 1.0065-0.64302 2.1581 0.36921 2.9042 1.0101 1.1125 0.95568 0.53217 2.7306-0.0947 3.7565-0.77492 1.2682-1.633 2.7663-3.6302 2.5885-0.97146-0.0865-3.607 0.0492-4.3247-1.5152z" fill-rule="evenodd" stroke="#000" stroke-width="1px" fill="#d5e5ff"/>
     <path id="path4185" opacity="0.99" d="m617.56 561.7c2.9946-3.3955 7.6158-3.6219 12.469-3.4685 4.4272 0.13993 9.1024 0.36092 11.825 3.4685 3.4288 3.9138 3.0459 13.327-0.0976 16.549-2.883 2.9557-7.3747 2.0999-12.049 2.0794-4.6095-0.0203-9.3044 1.1674-12.148-1.7474-3.1435-3.2227-3.5092-12.902 0-16.881z" fill="#bdcfff"/>
     <text id="text4212" style="word-spacing:0px;letter-spacing:0px" font-size="14.685px" line-height="125%" y="574.73004" x="624.51227" font-family="TakaoExGothic" xml:space="preserve" fill="#000000"><tspan id="tspan4214" y="574.73004" x="624.51227">$</tspan></text>
    </g>
    <g fill="#ccc">
     <rect id="rect4178" opacity="0.99" height="3.0305" width="27.177" y="525.85" x="527.58"/>
     <rect id="rect4180" opacity="0.99" height="3.0305" width="15.686" y="541.35" x="539.07"/>
     <rect id="rect4182" opacity="0.99" height="3.0305" width="27.177" y="556.75" x="527.58"/>
     <rect id="rect4184" opacity="0.99" height="3.0305" width="8.1103" y="541.35" x="527.58"/>
    </g>
    <g font-size="6.1383px" font-family="TakaoExGothic" fill="#b3b3b3">
     <text id="text4191" style="word-spacing:0px;letter-spacing:0px" line-height="125%" y="529.39886" x="560.83911" xml:space="preserve"><tspan id="tspan4193" y="529.39886" x="560.83911">$</tspan></text>
     <text id="text4195" style="word-spacing:0px;letter-spacing:0px" xml:space="preserve" line-height="125%" y="545.30878" x="560.83911"><tspan id="tspan4197" x="560.83911" y="545.30878">$</tspan></text>
     <text id="text4199" style="word-spacing:0px;letter-spacing:0px" line-height="125%" y="560.33478" x="560.83911" xml:space="preserve"><tspan id="tspan4201" y="560.33478" x="560.83911">$</tspan></text>
    </g>
    <circle id="circle4229" opacity="0.99" fill-opacity=".67677" cx="526.65" cy="525.93" r="18.167" fill="#ececec"/>
    <circle id="circle4169" opacity="0.99" cy="524.5" cx="522.28" r="18.167" fill="#d5e5ff"/>
    <circle id="path4164" opacity="0.99" cx="519.6" stroke="#000" cy="522.36" r="18.167" stroke-width="1.3" fill="none"/>
    <text id="text4207" style="word-spacing:0px;letter-spacing:0px" xml:space="preserve" font-size="20px" line-height="125%" y="529.74561" x="514.19025" font-family="TakaoExGothic" fill="#000000"><tspan id="tspan4209" x="514.19025" y="529.74561">$</tspan></text>
   </g>
  </g>
  <g id="g4406" transform="translate(-736.52 -104.17)">
   <circle id="circle4330" opacity="0.99" cx="844.16" fill-opacity="0.215" cy="590.4" r="83.571" fill="#d5e5ff"/>
   <g id="g4293" transform="translate(298.08 383.56)">
    <rect id="rect4188" opacity="0.99" rx="6" ry="6" height="87.143" width="148.57" stroke="#000" y="163.27" x="471.8" stroke-width="1.3" fill="#f9f9f9"/>
    <rect id="rect4329" opacity="0.99" clip-path="url(#clipPath4351)" transform="matrix(.79318 0 0 1 383.58 -80.858)" height="108.59" width="59.346" y="234.3" x="89.447" fill="#d5e5ff"/>
    <g id="g4268" transform="translate(358.86 -77.287)">
     <rect id="rect4190" opacity="0.99" rx=".95447" ry="2.0922" height="30.387" width="23.635" y="252.99" x="155.22" fill="#e6e6e6"/>
     <rect id="rect4210" opacity="0.99" clip-path="url(#clipPath4214)" rx="2.4231" ry="5.3115" transform="matrix(.39391 0 0 .39391 146.79 84.74)" width="60" y="427.12" x="21.415" height="77.143" fill="#f2f2f2"/>
     <circle id="path4218" opacity="0.99" cy="267.43" cx="159.85" r="2.2059" fill="#acf"/>
    </g>
    <g id="g4273" transform="translate(393.25 -77.287)">
     <rect id="rect4275" opacity="0.99" rx=".95447" ry="2.0922" height="30.387" width="23.635" y="252.99" x="155.22" fill="#e6e6e6"/>
     <rect id="rect4277" opacity="0.99" transform="matrix(.39391 0 0 .39391 146.79 84.74)" clip-path="url(#clipPath4214)" rx="2.4231" ry="5.3115" height="77.143" width="60" y="427.12" x="21.415" fill="#f2f2f2"/>
     <circle id="circle4279" opacity="0.99" cx="159.85" cy="267.43" r="2.2059" fill="#acf"/>
    </g>
    <g id="g4281" transform="translate(427.27 -77.287)">
     <rect id="rect4283" opacity="0.99" rx=".95447" ry="2.0922" height="30.387" width="23.635" y="252.99" x="155.22" fill="#e6e6e6"/>
     <rect id="rect4285" opacity="0.99" clip-path="url(#clipPath4214)" rx="2.4231" ry="5.3115" transform="matrix(.39391 0 0 .39391 146.79 84.74)" width="60" y="427.12" x="21.415" height="77.143" fill="#f2f2f2"/>
     <circle id="circle4287" opacity="0.99" cy="267.43" cx="159.85" r="2.2059" fill="#acf"/>
    </g>
    <g id="g4289" transform="translate(358.86 -38.001)">
     <rect id="rect4291" opacity="0.99" rx=".95447" ry="2.0922" height="30.387" width="23.635" y="252.99" x="155.22" fill="#e6e6e6"/>
     <rect id="rect4293" opacity="0.99" transform="matrix(.39391 0 0 .39391 146.79 84.74)" clip-path="url(#clipPath4214)" rx="2.4231" ry="5.3115" height="77.143" width="60" y="427.12" x="21.415" fill="#f2f2f2"/>
     <circle id="circle4295" opacity="0.99" cx="159.85" cy="267.43" r="2.2059" fill="#acf"/>
    </g>
    <g id="g4297" transform="translate(393.25 -38.001)">
     <rect id="rect4299" opacity="0.99" rx=".95447" ry="2.0922" height="30.387" width="23.635" y="252.99" x="155.22" fill="#e6e6e6"/>
     <rect id="rect4301" opacity="0.99" clip-path="url(#clipPath4214)" rx="2.4231" ry="5.3115" transform="matrix(.39391 0 0 .39391 146.79 84.74)" width="60" y="427.12" x="21.415" height="77.143" fill="#f2f2f2"/>
     <circle id="circle4303" opacity="0.99" cy="267.43" cx="159.85" r="2.2059" fill="#acf"/>
    </g>
    <g id="g4305" transform="translate(427.27 -38.001)">
     <rect id="rect4307" opacity="0.99" rx=".95447" ry="2.0922" height="30.387" width="23.635" y="252.99" x="155.22" fill="#e6e6e6"/>
     <rect id="rect4309" opacity="0.99" transform="matrix(.39391 0 0 .39391 146.79 84.74)" clip-path="url(#clipPath4214)" rx="2.4231" ry="5.3115" height="77.143" width="60" y="427.12" x="21.415" fill="#f2f2f2"/>
     <circle id="circle4311" opacity="0.99" cx="159.85" cy="267.43" r="2.2059" fill="#acf"/>
    </g>
    <rect id="rect4223" opacity="0.99" transform="matrix(1 0 0 .78793 -35.202 -48.035)" clip-path="url(#clipPath4227)" rx="6" ry="6" height="87.143" width="148.57" y="268.18" x="507" fill="#e6e6e6"/>
    <rect id="rect4355" opacity="0.99" rx="6" ry="6" height="87.143" width="148.57" stroke="#000" y="163.27" x="471.8" stroke-width="1.3" fill="none"/>
    <rect id="rect4239" opacity="0.99" clip-path="url(#clipPath4227)" rx="6" ry="6" transform="matrix(1 0 0 -.20475 -35.202 225.44)" width="148.57" y="268.18" x="507" height="87.143"/>
    <g id="g4243" transform="matrix(1 0 0 .25986 -35.202 97.809)">
     <rect id="rect4241" opacity="0.99" clip-path="url(#clipPath4227)" rx="6" ry="6" transform="matrix(1 0 0 .78793 0 62.588)" width="148.57" y="268.18" x="507" height="87.143"/>
    </g>
    <g id="g4252" fill="#ccc" transform="translate(-33.939 -104.78)">
     <circle id="path4246" opacity="0.99" cy="271.26" cx="513.92" r="1.7678"/>
     <circle id="circle4248" opacity="0.99" cx="519.53" cy="271.26" r="1.7678"/>
     <circle id="circle4250" opacity="0.99" cy="271.26" cx="525.34" r="1.7678"/>
    </g>
   </g>
   <g id="g4272" transform="matrix(.74613 .43078 -.43078 .74613 690.25 269.3)">
    <rect id="rect4254" opacity="0.99" fill-opacity=".36869" rx="3.1563" height="82.607" width="61.115" y="147.96" x="356.09" fill="#ccc"/>
    <g>
     <rect id="rect4232" opacity="0.99" rx="4.1256" height="86.456" width="79.884" stroke="#000" y="141.63" x="334.12" stroke-width=".97968" fill="#fff"/>
     <text id="text4234" style="word-spacing:0px;letter-spacing:0px" xml:space="preserve" font-size="13.029px" y="159.76425" x="344.99017" font-family="sans-serif" line-height="125%" fill="#000000"><tspan id="tspan4236" x="344.99017" y="159.76425">A</tspan></text>
     <g>
      <rect id="rect4238" opacity="0.99" rx="1.7717" height="2.5023" width="35.282" y="151.01" x="361.46" fill="#ccc"/>
      <rect id="rect4240" opacity="0.99" rx="1.2565" height="2.0018" width="25.023" y="156.76" x="361.46" fill="#e6e6e6"/>
      <rect id="rect4244" opacity="0.99" rx="1.7717" height="2.5023" width="35.282" y="168.02" x="343.44" fill="#d5e5ff"/>
      <rect id="rect4246" opacity="0.99" rx="1.0303" height="2.0018" width="20.518" y="173.78" x="343.44" fill="#e6e6e6"/>
      <rect id="rect4248" opacity="0.99" rx="1.2188" height="2.5023" width="24.272" y="168.02" x="381.98" fill="#ccc"/>
     </g>
    </g>
    <g fill="#e6e6e6">
     <rect id="rect4250" opacity="0.99" rx="0.578" height="2.0018" width="11.51" y="173.78" x="366.53"/>
     <rect id="rect4252" opacity="0.99" rx="1.2565" height="2.0018" width="25.023" y="173.78" x="380.48"/>
     <rect id="rect4256" opacity="0.99" rx="1.0303" transform="scale(-1)" height="2.0018" width="20.518" y="-181.53" x="-405.5"/>
     <rect id="rect4258" opacity="0.99" rx="0.578" transform="scale(-1)" height="2.0018" width="11.51" y="-181.53" x="-382.42"/>
     <rect id="rect4260" opacity="0.99" rx="1.2565" transform="scale(-1)" height="2.0018" width="25.023" y="-181.53" x="-368.47"/>
    </g>
    <g>
     <rect id="rect4262" opacity="0.99" rx="1.1686" height="15.264" width="23.271" y="187.79" x="347.7" fill="#ccc"/>
     <rect id="rect4264" opacity="0.99" rx="1.1686" height="15.264" width="23.271" y="187.79" x="376.22" fill="#ccc"/>
     <rect id="rect4266" opacity="0.99" rx="1.4888" transform="scale(1,-1)" height="2.5023" width="29.649" y="-216.51" x="343.44" fill="#d5e5ff"/>
     <rect id="rect4268" opacity="0.99" rx="1.0303" transform="scale(1,-1)" height="2.0018" width="20.518" y="-210.75" x="343.44" fill="#e6e6e6"/>
     <rect id="rect4270" opacity="0.99" rx="1.2742" transform="scale(1,-1)" height="2.0018" width="25.375" y="-210.75" x="366.53" fill="#e6e6e6"/>
    </g>
   </g>
  </g>
  <g id="g4761">
   <circle id="circle4467" opacity="0.99" fill-opacity="0.215" cy="486.24" cx="372.35" r="83.571" fill="#d5e5ff"/>
   <g id="g4469" transform="translate(-173.73 279.4)">
    <rect id="rect4471" opacity="0.99" rx="6" ry="6" height="87.143" width="148.57" stroke="#000" y="163.27" x="471.8" stroke-width="1.3" fill="#f9f9f9"/>
    <rect id="rect4473" opacity="0.99" clip-path="url(#clipPath4351)" transform="matrix(.79318 0 0 1 383.58 -80.858)" height="108.59" width="59.346" y="234.3" x="89.447" fill="#d5e5ff"/>
    <g id="g4475" transform="translate(358.86 -77.287)">
     <rect id="rect4477" opacity="0.99" rx=".95447" ry="2.0922" height="30.387" width="23.635" y="252.99" x="155.22" fill="#e6e6e6"/>
     <rect id="rect4479" opacity="0.99" transform="matrix(.39391 0 0 .39391 146.79 84.74)" clip-path="url(#clipPath4214)" rx="2.4231" ry="5.3115" height="77.143" width="60" y="427.12" x="21.415" fill="#f2f2f2"/>
     <circle id="circle4481" opacity="0.99" cx="159.85" cy="267.43" r="2.2059" fill="#acf"/>
    </g>
    <g id="g4483" transform="translate(393.25 -77.287)">
     <rect id="rect4485" opacity="0.99" rx=".95447" ry="2.0922" height="30.387" width="23.635" y="252.99" x="155.22" fill="#e6e6e6"/>
     <rect id="rect4487" opacity="0.99" clip-path="url(#clipPath4214)" rx="2.4231" ry="5.3115" transform="matrix(.39391 0 0 .39391 146.79 84.74)" width="60" y="427.12" x="21.415" height="77.143" fill="#f2f2f2"/>
     <circle id="circle4489" opacity="0.99" cy="267.43" cx="159.85" r="2.2059" fill="#acf"/>
    </g>
    <g id="g4491" transform="translate(427.27 -77.287)">
     <rect id="rect4493" opacity="0.99" rx=".95447" ry="2.0922" height="30.387" width="23.635" y="252.99" x="155.22" fill="#e6e6e6"/>
     <rect id="rect4495" opacity="0.99" transform="matrix(.39391 0 0 .39391 146.79 84.74)" clip-path="url(#clipPath4214)" rx="2.4231" ry="5.3115" height="77.143" width="60" y="427.12" x="21.415" fill="#f2f2f2"/>
     <circle id="circle4497" opacity="0.99" cx="159.85" cy="267.43" r="2.2059" fill="#acf"/>
    </g>
    <g id="g4499" transform="translate(358.86 -38.001)">
     <rect id="rect4501" opacity="0.99" rx=".95447" ry="2.0922" height="30.387" width="23.635" y="252.99" x="155.22" fill="#e6e6e6"/>
     <rect id="rect4503" opacity="0.99" clip-path="url(#clipPath4214)" rx="2.4231" ry="5.3115" transform="matrix(.39391 0 0 .39391 146.79 84.74)" width="60" y="427.12" x="21.415" height="77.143" fill="#f2f2f2"/>
     <circle id="circle4505" opacity="0.99" cy="267.43" cx="159.85" r="2.2059" fill="#acf"/>
    </g>
    <g id="g4507" transform="translate(393.25 -38.001)">
     <rect id="rect4509" opacity="0.99" rx=".95447" ry="2.0922" height="30.387" width="23.635" y="252.99" x="155.22" fill="#e6e6e6"/>
     <rect id="rect4511" opacity="0.99" transform="matrix(.39391 0 0 .39391 146.79 84.74)" clip-path="url(#clipPath4214)" rx="2.4231" ry="5.3115" height="77.143" width="60" y="427.12" x="21.415" fill="#f2f2f2"/>
     <circle id="circle4513" opacity="0.99" cx="159.85" cy="267.43" r="2.2059" fill="#acf"/>
    </g>
    <g id="g4515" transform="translate(427.27 -38.001)">
     <rect id="rect4517" opacity="0.99" rx=".95447" ry="2.0922" height="30.387" width="23.635" y="252.99" x="155.22" fill="#e6e6e6"/>
     <rect id="rect4519" opacity="0.99" clip-path="url(#clipPath4214)" rx="2.4231" ry="5.3115" transform="matrix(.39391 0 0 .39391 146.79 84.74)" width="60" y="427.12" x="21.415" height="77.143" fill="#f2f2f2"/>
     <circle id="circle4521" opacity="0.99" cy="267.43" cx="159.85" r="2.2059" fill="#acf"/>
    </g>
    <rect id="rect4523" opacity="0.99" clip-path="url(#clipPath4227)" rx="6" ry="6" transform="matrix(1 0 0 .78793 -35.202 -48.035)" width="148.57" y="268.18" x="507" height="87.143" fill="#e6e6e6"/>
    <rect id="rect4525" opacity="0.99" rx="6" ry="6" height="87.143" width="148.57" stroke="#000" y="163.27" x="471.8" stroke-width="1.3" fill="none"/>
    <rect id="rect4527" opacity="0.99" transform="matrix(1 0 0 -.20475 -35.202 225.44)" clip-path="url(#clipPath4227)" rx="6" ry="6" height="87.143" width="148.57" y="268.18" x="507"/>
    <g id="g4529" transform="matrix(1 0 0 .25986 -35.202 97.809)">
     <rect id="rect4531" opacity="0.99" transform="matrix(1 0 0 .78793 0 62.588)" clip-path="url(#clipPath4227)" rx="6" ry="6" height="87.143" width="148.57" y="268.18" x="507"/>
    </g>
    <g id="g4533" fill="#ccc" transform="translate(-33.939 -104.78)">
     <circle id="circle4535" opacity="0.99" cx="513.92" cy="271.26" r="1.7678"/>
     <circle id="circle4537" opacity="0.99" cy="271.26" cx="519.53" r="1.7678"/>
     <circle id="circle4539" opacity="0.99" cx="525.34" cy="271.26" r="1.7678"/>
    </g>
   </g>
   <g id="g4670" transform="matrix(1.0842 -.29786 .29786 1.0842 -239.78 -271.96)" stroke="#000">
    <g stroke-width="1.3">
     <path id="rect4638" opacity="0.99" d="m280.32 733.82c-2.6507 0-4.7847 2.134-4.7847 4.7847v22.771c0 2.6507 2.134 4.7847 4.7847 4.7847h41.854c9.7982 3.4247 17.102 12.474 24.392 19.764-2.7603-10.302-2.8025-10.585-5.2563-19.764h4.6258c2.6507 0 4.7847-2.134 4.7847-4.7847v-22.771c0-2.6507-2.134-4.7847-4.7847-4.7847h-65.615z" fill="#fff"/>
     <path id="rect4655" opacity="0.99" d="m296.75 750.68h30.424c2.1874 0 3.9484 1.311 3.9484 2.9394s-1.761 2.9394-3.9484 2.9394h-30.424c-2.1874 0-3.9484-1.311-3.9484-2.9394s1.761-2.9394 3.9484-2.9394z" fill="#fff"/>
     <path id="path4658" opacity="0.99" d="m295.39 750.65h19.425c1.3966 0 2.521 1.3255 2.521 2.972s-1.1244 2.972-2.521 2.972h-19.425c-1.3966 0-2.521-1.3255-2.521-2.972s1.1244-2.972 2.521-2.972z" fill="#d5e5ff"/>
    </g>
    <rect id="rect4668" opacity="0.99" rx="16.163" height=".71919" width="25.091" y="744.27" x="293.29" stroke-width="1.2307" fill="none"/>
   </g>
   <g id="g4739" transform="translate(0 -301.47)">
    <circle id="path4651" opacity="0.99" cx="438.72" stroke="#000" cy="817.38" r="23.138" stroke-width="1.3" fill="#fff"/>
    <g id="g4719" transform="matrix(.47001 0 0 .47001 424.62 803.28)">
     <g id="g4677">
      <path id="path4679" d="m50.975 20.694c-0.527-9-7.946-16.194-16.891-16.194-5.43 0-10.688 2.663-13.946 7.008-0.074-0.039-0.153-0.065-0.228-0.102-0.198-0.096-0.399-0.188-0.605-0.269-0.115-0.045-0.23-0.086-0.346-0.127-0.202-0.071-0.406-0.133-0.615-0.19-0.116-0.031-0.231-0.063-0.349-0.09-0.224-0.051-0.452-0.09-0.683-0.124-0.102-0.015-0.202-0.035-0.305-0.047-0.33-0.036-0.666-0.059-1.007-0.059-4.962 0-9 4.037-9 9 0 0.129 0.007 0.255 0.016 0.381-4.159 2.267-7.016 7.018-7.016 11.773 0 7.083 5.762 12.846 12.845 12.846h5.155c0.552 0 1-0.447 1-1s-0.448-1-1-1h-5.155c-5.98 0-10.845-4.865-10.845-10.846 0-4.154 2.705-8.466 6.432-10.253l0.568-0.271v-0.63c0-0.123 0.008-0.249 0.015-0.375l0.009-0.175-0.012-0.188c-0.005-0.087-0.012-0.174-0.012-0.262 0-3.859 3.14-7 7-7 0.309 0 0.614 0.027 0.917 0.067 0.078 0.01 0.155 0.023 0.232 0.036 0.268 0.044 0.532 0.102 0.792 0.177 0.034 0.01 0.069 0.016 0.102 0.026 0.286 0.087 0.565 0.198 0.838 0.322 0.069 0.031 0.137 0.065 0.205 0.099 0.242 0.119 0.479 0.251 0.707 0.399 1.927 1.249 3.207 3.413 3.207 5.874 0 0.553 0.448 1 1 1s1-0.447 1-1c0-2.754-1.246-5.219-3.2-6.871 2.866-3.75 7.588-6.129 12.284-6.129 7.744 0 14.178 6.135 14.848 13.887-1.022-0.072-2.553-0.109-4.083 0.125-0.546 0.083-0.921 0.593-0.838 1.139 0.075 0.495 0.501 0.85 0.987 0.85 0.05 0 0.101-0.004 0.152-0.012 2.224-0.336 4.543-0.021 4.684-0.002 4.656 0.885 8.166 5.174 8.166 9.985 0 5.529-4.499 10.028-10.028 10.028h-3.972c-0.552 0-1 0.447-1 1s0.448 1 1 1h3.972c6.632 0 12.028-5.396 12.028-12.028 0-5.489-3.827-10.412-9.025-11.778z"/>
      <path id="path4681" d="m31.708 30.794c-0.092-0.093-0.203-0.166-0.326-0.217-0.244-0.101-0.52-0.101-0.764 0-0.123 0.051-0.233 0.124-0.326 0.217l-7.999 7.999c-0.391 0.391-0.391 1.023 0 1.414 0.195 0.195 0.451 0.293 0.707 0.293s0.512-0.098 0.707-0.293l6.293-6.293v20.586c0 0.553 0.448 1 1 1s1-0.447 1-1v-20.586l6.293 6.293c0.195 0.195 0.451 0.293 0.707 0.293s0.512-0.098 0.707-0.293c0.391-0.391 0.391-1.023 0-1.414l-7.999-7.999z"/>
     </g>
    </g>
   </g>
  </g>
 </g>
</svg>
